<svg xmlns="http://www.w3.org/2000/svg" viewBox="0 0 200 200"><rect width="200" height="200" fill="#ECE8E1"/><rect x="20" y="20" width="160" height="160" fill="#A8441C"/><rect x="21" y="20.5" width="18" height="9" fill="#0B0B0A"/><rect x="21" y="30.5" width="18" height="9" fill="#0B0B0A"/><rect x="41" y="20.5" width="18" height="9" fill="#0B0B0A"/><rect x="41" y="30.5" width="18" height="9" fill="#0B0B0A"/><rect x="61" y="20.5" width="18" height="9" fill="#0B0B0A"/><rect x="61" y="30.5" width="18" height="9" fill="#0B0B0A"/><rect x="81" y="20.5" width="18" height="9" fill="#0B0B0A"/><rect x="81" y="30.5" width="18" height="9" fill="#0B0B0A"/><rect x="101" y="20.5" width="18" height="9" fill="#0B0B0A"/><rect x="101" y="30.5" width="18" height="9" fill="#0B0B0A"/><rect x="121" y="20.5" width="18" height="9" fill="#0B0B0A"/><rect x="121" y="30.5" width="18" height="9" fill="#0B0B0A"/><rect x="141" y="20.5" width="18" height="9" fill="#0B0B0A"/><rect x="141" y="30.5" width="18" height="9" fill="#0B0B0A"/><rect x="161" y="20.5" width="18" height="9" fill="#0B0B0A"/><rect x="161" y="30.5" width="18" height="9" fill="#0B0B0A"/><rect x="21" y="40.5" width="18" height="9" fill="#0B0B0A"/><rect x="21" y="50.5" width="18" height="9" fill="#0B0B0A"/><rect x="41" y="40.5" width="18" height="9" fill="#0B0B0A"/><rect x="41" y="50.5" width="18" height="9" fill="#0B0B0A"/><rect x="61" y="40.5" width="18" height="9" fill="#0B0B0A"/><rect x="61" y="50.5" width="18" height="9" fill="#0B0B0A"/><rect x="81" y="40.5" width="18" height="9" fill="#0B0B0A"/><rect x="81" y="50.5" width="18" height="9" fill="#0B0B0A"/><rect x="101" y="40.5" width="18" height="9" fill="#ECE8E1"/><rect x="101" y="50.5" width="18" height="9" fill="#ECE8E1"/><rect x="121" y="40.5" width="18" height="9" fill="#0B0B0A"/><rect x="121" y="50.5" width="18" height="9" fill="#0B0B0A"/><rect x="141" y="40.5" width="18" height="9" fill="#0B0B0A"/><rect x="141" y="50.5" width="18" height="9" fill="#0B0B0A"/><rect x="161" y="40.5" width="18" height="9" fill="#0B0B0A"/><rect x="161" y="50.5" width="18" height="9" fill="#0B0B0A"/><rect x="21" y="60.5" width="18" height="9" fill="#0B0B0A"/><rect x="21" y="70.5" width="18" height="9" fill="#0B0B0A"/><rect x="41" y="60.5" width="18" height="9" fill="#0B0B0A"/><rect x="41" y="70.5" width="18" height="9" fill="#0B0B0A"/><rect x="61" y="60.5" width="18" height="9" fill="#0B0B0A"/><rect x="61" y="70.5" width="18" height="9" fill="#0B0B0A"/><rect x="81" y="60.5" width="18" height="9" fill="#0B0B0A"/><rect x="81" y="70.5" width="18" height="9" fill="#0B0B0A"/><rect x="101" y="60.5" width="18" height="9" fill="#ECE8E1"/><rect x="101" y="70.5" width="18" height="9" fill="#ECE8E1"/><rect x="121" y="60.5" width="18" height="9" fill="#ECE8E1"/><rect x="121" y="70.5" width="18" height="9" fill="#ECE8E1"/><rect x="141" y="60.5" width="18" height="9" fill="#0B0B0A"/><rect x="141" y="70.5" width="18" height="9" fill="#0B0B0A"/><rect x="161" y="60.5" width="18" height="9" fill="#0B0B0A"/><rect x="161" y="70.5" width="18" height="9" fill="#0B0B0A"/><rect x="21" y="80.5" width="18" height="9" fill="#0B0B0A"/><rect x="21" y="90.5" width="18" height="9" fill="#0B0B0A"/><rect x="41" y="80.5" width="18" height="9" fill="#0B0B0A"/><rect x="41" y="90.5" width="18" height="9" fill="#0B0B0A"/><rect x="61" y="80.5" width="18" height="9" fill="#ECE8E1"/><rect x="61" y="90.5" width="18" height="9" fill="#ECE8E1"/><rect x="81" y="80.5" width="18" height="9" fill="#0B0B0A"/><rect x="81" y="90.5" width="18" height="9" fill="#0B0B0A"/><rect x="101" y="80.5" width="18" height="9" fill="#ECE8E1"/><rect x="101" y="90.5" width="18" height="9" fill="#ECE8E1"/><rect x="121" y="80.5" width="18" height="9" fill="#0B0B0A"/><rect x="121" y="90.5" width="18" height="9" fill="#0B0B0A"/><rect x="141" y="80.5" width="18" height="9" fill="#0B0B0A"/><rect x="141" y="90.5" width="18" height="9" fill="#0B0B0A"/><rect x="161" y="80.5" width="18" height="9" fill="#0B0B0A"/><rect x="161" y="90.5" width="18" height="9" fill="#0B0B0A"/><rect x="21" y="100.5" width="18" height="9" fill="#0B0B0A"/><rect x="21" y="110.5" width="18" height="9" fill="#0B0B0A"/><rect x="41" y="100.5" width="18" height="9" fill="#ECE8E1"/><rect x="41" y="110.5" width="18" height="9" fill="#ECE8E1"/><rect x="61" y="100.5" width="18" height="9" fill="#0B0B0A"/><rect x="61" y="110.5" width="18" height="9" fill="#0B0B0A"/><rect x="81" y="100.5" width="18" height="9" fill="#ECE8E1"/><rect x="81" y="110.5" width="18" height="9" fill="#ECE8E1"/><rect x="101" y="100.5" width="18" height="9" fill="#ECE8E1"/><rect x="101" y="110.5" width="18" height="9" fill="#ECE8E1"/><rect x="121" y="100.5" width="18" height="9" fill="#ECE8E1"/><rect x="121" y="110.5" width="18" height="9" fill="#ECE8E1"/><rect x="141" y="100.5" width="18" height="9" fill="#0B0B0A"/><rect x="141" y="110.5" width="18" height="9" fill="#0B0B0A"/><rect x="161" y="100.5" width="18" height="9" fill="#0B0B0A"/><rect x="161" y="110.5" width="18" height="9" fill="#0B0B0A"/><rect x="21" y="120.5" width="18" height="9" fill="#0B0B0A"/><rect x="21" y="130.5" width="18" height="9" fill="#0B0B0A"/><rect x="41" y="120.5" width="18" height="9" fill="#0B0B0A"/><rect x="41" y="130.5" width="18" height="9" fill="#0B0B0A"/><rect x="61" y="120.5" width="18" height="9" fill="#0B0B0A"/><rect x="61" y="130.5" width="18" height="9" fill="#0B0B0A"/><rect x="81" y="120.5" width="18" height="9" fill="#0B0B0A"/><rect x="81" y="130.5" width="18" height="9" fill="#0B0B0A"/><rect x="101" y="120.5" width="18" height="9" fill="#ECE8E1"/><rect x="101" y="130.5" width="18" height="9" fill="#ECE8E1"/><rect x="121" y="120.5" width="18" height="9" fill="#ECE8E1"/><rect x="121" y="130.5" width="18" height="9" fill="#ECE8E1"/><rect x="141" y="120.5" width="18" height="9" fill="#ECE8E1"/><rect x="141" y="130.5" width="18" height="9" fill="#ECE8E1"/><rect x="161" y="120.5" width="18" height="9" fill="#0B0B0A"/><rect x="161" y="130.5" width="18" height="9" fill="#0B0B0A"/><rect x="21" y="140.5" width="18" height="9" fill="#0B0B0A"/><rect x="21" y="150.5" width="18" height="9" fill="#0B0B0A"/><rect x="41" y="140.5" width="18" height="9" fill="#0B0B0A"/><rect x="41" y="150.5" width="18" height="9" fill="#0B0B0A"/><rect x="61" y="140.5" width="18" height="9" fill="#ECE8E1"/><rect x="61" y="150.5" width="18" height="9" fill="#ECE8E1"/><rect x="81" y="140.5" width="18" height="9" fill="#0B0B0A"/><rect x="81" y="150.5" width="18" height="9" fill="#0B0B0A"/><rect x="101" y="140.5" width="18" height="9" fill="#ECE8E1"/><rect x="101" y="150.5" width="18" height="9" fill="#ECE8E1"/><rect x="121" y="140.5" width="18" height="9" fill="#0B0B0A"/><rect x="121" y="150.5" width="18" height="9" fill="#0B0B0A"/><rect x="141" y="140.5" width="18" height="9" fill="#0B0B0A"/><rect x="141" y="150.5" width="18" height="9" fill="#0B0B0A"/><rect x="161" y="140.5" width="18" height="9" fill="#0B0B0A"/><rect x="161" y="150.5" width="18" height="9" fill="#0B0B0A"/><rect x="21" y="160.5" width="18" height="9" fill="#0B0B0A"/><rect x="21" y="170.5" width="18" height="9" fill="#0B0B0A"/><rect x="41" y="160.5" width="18" height="9" fill="#0B0B0A"/><rect x="41" y="170.5" width="18" height="9" fill="#0B0B0A"/><rect x="61" y="160.5" width="18" height="9" fill="#0B0B0A"/><rect x="61" y="170.5" width="18" height="9" fill="#0B0B0A"/><rect x="81" y="160.5" width="18" height="9" fill="#0B0B0A"/><rect x="81" y="170.5" width="18" height="9" fill="#0B0B0A"/><rect x="101" y="160.5" width="18" height="9" fill="#0B0B0A"/><rect x="101" y="170.5" width="18" height="9" fill="#0B0B0A"/><rect x="121" y="160.5" width="18" height="9" fill="#0B0B0A"/><rect x="121" y="170.5" width="18" height="9" fill="#0B0B0A"/><rect x="141" y="160.5" width="18" height="9" fill="#0B0B0A"/><rect x="141" y="170.5" width="18" height="9" fill="#0B0B0A"/><rect x="161" y="160.5" width="18" height="9" fill="#0B0B0A"/><rect x="161" y="170.5" width="18" height="9" fill="#0B0B0A"/></svg>
