<svg xmlns="http://www.w3.org/2000/svg" viewBox="0 0 1000 1000" width="1000" height="1000" shape-rendering="crispEdges">
<title>Control target T7: AprilTag tag36h11 ID 7 laid as 128 bricks in stack bond</title>
<!-- HRCG-2027 (planned). Control target T7. AprilTag family tag36h11, ID 7. 8x8 square cells of two stacked stretchers; rust joints; one-cell chalk quiet zone. A test target for developers, not a rule of the Games. Printable vector master. -->
<rect x="0" y="0" width="1000" height="1000" fill="#ECE8E1"/>
<rect x="100" y="100" width="800" height="800" fill="#A8441C"/>
<rect x="102.273" y="102.273" width="95.455" height="45.455" fill="#0B0B0A"/>
<rect x="102.273" y="152.273" width="95.455" height="45.455" fill="#0B0B0A"/>
<rect x="202.273" y="102.273" width="95.455" height="45.455" fill="#0B0B0A"/>
<rect x="202.273" y="152.273" width="95.455" height="45.455" fill="#0B0B0A"/>
<rect x="302.273" y="102.273" width="95.455" height="45.455" fill="#0B0B0A"/>
<rect x="302.273" y="152.273" width="95.455" height="45.455" fill="#0B0B0A"/>
<rect x="402.273" y="102.273" width="95.455" height="45.455" fill="#0B0B0A"/>
<rect x="402.273" y="152.273" width="95.455" height="45.455" fill="#0B0B0A"/>
<rect x="502.273" y="102.273" width="95.455" height="45.455" fill="#0B0B0A"/>
<rect x="502.273" y="152.273" width="95.455" height="45.455" fill="#0B0B0A"/>
<rect x="602.273" y="102.273" width="95.455" height="45.455" fill="#0B0B0A"/>
<rect x="602.273" y="152.273" width="95.455" height="45.455" fill="#0B0B0A"/>
<rect x="702.273" y="102.273" width="95.455" height="45.455" fill="#0B0B0A"/>
<rect x="702.273" y="152.273" width="95.455" height="45.455" fill="#0B0B0A"/>
<rect x="802.273" y="102.273" width="95.455" height="45.455" fill="#0B0B0A"/>
<rect x="802.273" y="152.273" width="95.455" height="45.455" fill="#0B0B0A"/>
<rect x="102.273" y="202.273" width="95.455" height="45.455" fill="#0B0B0A"/>
<rect x="102.273" y="252.273" width="95.455" height="45.455" fill="#0B0B0A"/>
<rect x="202.273" y="202.273" width="95.455" height="45.455" fill="#0B0B0A"/>
<rect x="202.273" y="252.273" width="95.455" height="45.455" fill="#0B0B0A"/>
<rect x="302.273" y="202.273" width="95.455" height="45.455" fill="#0B0B0A"/>
<rect x="302.273" y="252.273" width="95.455" height="45.455" fill="#0B0B0A"/>
<rect x="402.273" y="202.273" width="95.455" height="45.455" fill="#0B0B0A"/>
<rect x="402.273" y="252.273" width="95.455" height="45.455" fill="#0B0B0A"/>
<rect x="502.273" y="202.273" width="95.455" height="45.455" fill="#ECE8E1"/>
<rect x="502.273" y="252.273" width="95.455" height="45.455" fill="#ECE8E1"/>
<rect x="602.273" y="202.273" width="95.455" height="45.455" fill="#0B0B0A"/>
<rect x="602.273" y="252.273" width="95.455" height="45.455" fill="#0B0B0A"/>
<rect x="702.273" y="202.273" width="95.455" height="45.455" fill="#0B0B0A"/>
<rect x="702.273" y="252.273" width="95.455" height="45.455" fill="#0B0B0A"/>
<rect x="802.273" y="202.273" width="95.455" height="45.455" fill="#0B0B0A"/>
<rect x="802.273" y="252.273" width="95.455" height="45.455" fill="#0B0B0A"/>
<rect x="102.273" y="302.273" width="95.455" height="45.455" fill="#0B0B0A"/>
<rect x="102.273" y="352.273" width="95.455" height="45.455" fill="#0B0B0A"/>
<rect x="202.273" y="302.273" width="95.455" height="45.455" fill="#0B0B0A"/>
<rect x="202.273" y="352.273" width="95.455" height="45.455" fill="#0B0B0A"/>
<rect x="302.273" y="302.273" width="95.455" height="45.455" fill="#0B0B0A"/>
<rect x="302.273" y="352.273" width="95.455" height="45.455" fill="#0B0B0A"/>
<rect x="402.273" y="302.273" width="95.455" height="45.455" fill="#0B0B0A"/>
<rect x="402.273" y="352.273" width="95.455" height="45.455" fill="#0B0B0A"/>
<rect x="502.273" y="302.273" width="95.455" height="45.455" fill="#ECE8E1"/>
<rect x="502.273" y="352.273" width="95.455" height="45.455" fill="#ECE8E1"/>
<rect x="602.273" y="302.273" width="95.455" height="45.455" fill="#ECE8E1"/>
<rect x="602.273" y="352.273" width="95.455" height="45.455" fill="#ECE8E1"/>
<rect x="702.273" y="302.273" width="95.455" height="45.455" fill="#0B0B0A"/>
<rect x="702.273" y="352.273" width="95.455" height="45.455" fill="#0B0B0A"/>
<rect x="802.273" y="302.273" width="95.455" height="45.455" fill="#0B0B0A"/>
<rect x="802.273" y="352.273" width="95.455" height="45.455" fill="#0B0B0A"/>
<rect x="102.273" y="402.273" width="95.455" height="45.455" fill="#0B0B0A"/>
<rect x="102.273" y="452.273" width="95.455" height="45.455" fill="#0B0B0A"/>
<rect x="202.273" y="402.273" width="95.455" height="45.455" fill="#0B0B0A"/>
<rect x="202.273" y="452.273" width="95.455" height="45.455" fill="#0B0B0A"/>
<rect x="302.273" y="402.273" width="95.455" height="45.455" fill="#ECE8E1"/>
<rect x="302.273" y="452.273" width="95.455" height="45.455" fill="#ECE8E1"/>
<rect x="402.273" y="402.273" width="95.455" height="45.455" fill="#0B0B0A"/>
<rect x="402.273" y="452.273" width="95.455" height="45.455" fill="#0B0B0A"/>
<rect x="502.273" y="402.273" width="95.455" height="45.455" fill="#ECE8E1"/>
<rect x="502.273" y="452.273" width="95.455" height="45.455" fill="#ECE8E1"/>
<rect x="602.273" y="402.273" width="95.455" height="45.455" fill="#0B0B0A"/>
<rect x="602.273" y="452.273" width="95.455" height="45.455" fill="#0B0B0A"/>
<rect x="702.273" y="402.273" width="95.455" height="45.455" fill="#0B0B0A"/>
<rect x="702.273" y="452.273" width="95.455" height="45.455" fill="#0B0B0A"/>
<rect x="802.273" y="402.273" width="95.455" height="45.455" fill="#0B0B0A"/>
<rect x="802.273" y="452.273" width="95.455" height="45.455" fill="#0B0B0A"/>
<rect x="102.273" y="502.273" width="95.455" height="45.455" fill="#0B0B0A"/>
<rect x="102.273" y="552.273" width="95.455" height="45.455" fill="#0B0B0A"/>
<rect x="202.273" y="502.273" width="95.455" height="45.455" fill="#ECE8E1"/>
<rect x="202.273" y="552.273" width="95.455" height="45.455" fill="#ECE8E1"/>
<rect x="302.273" y="502.273" width="95.455" height="45.455" fill="#0B0B0A"/>
<rect x="302.273" y="552.273" width="95.455" height="45.455" fill="#0B0B0A"/>
<rect x="402.273" y="502.273" width="95.455" height="45.455" fill="#ECE8E1"/>
<rect x="402.273" y="552.273" width="95.455" height="45.455" fill="#ECE8E1"/>
<rect x="502.273" y="502.273" width="95.455" height="45.455" fill="#ECE8E1"/>
<rect x="502.273" y="552.273" width="95.455" height="45.455" fill="#ECE8E1"/>
<rect x="602.273" y="502.273" width="95.455" height="45.455" fill="#ECE8E1"/>
<rect x="602.273" y="552.273" width="95.455" height="45.455" fill="#ECE8E1"/>
<rect x="702.273" y="502.273" width="95.455" height="45.455" fill="#0B0B0A"/>
<rect x="702.273" y="552.273" width="95.455" height="45.455" fill="#0B0B0A"/>
<rect x="802.273" y="502.273" width="95.455" height="45.455" fill="#0B0B0A"/>
<rect x="802.273" y="552.273" width="95.455" height="45.455" fill="#0B0B0A"/>
<rect x="102.273" y="602.273" width="95.455" height="45.455" fill="#0B0B0A"/>
<rect x="102.273" y="652.273" width="95.455" height="45.455" fill="#0B0B0A"/>
<rect x="202.273" y="602.273" width="95.455" height="45.455" fill="#0B0B0A"/>
<rect x="202.273" y="652.273" width="95.455" height="45.455" fill="#0B0B0A"/>
<rect x="302.273" y="602.273" width="95.455" height="45.455" fill="#0B0B0A"/>
<rect x="302.273" y="652.273" width="95.455" height="45.455" fill="#0B0B0A"/>
<rect x="402.273" y="602.273" width="95.455" height="45.455" fill="#0B0B0A"/>
<rect x="402.273" y="652.273" width="95.455" height="45.455" fill="#0B0B0A"/>
<rect x="502.273" y="602.273" width="95.455" height="45.455" fill="#ECE8E1"/>
<rect x="502.273" y="652.273" width="95.455" height="45.455" fill="#ECE8E1"/>
<rect x="602.273" y="602.273" width="95.455" height="45.455" fill="#ECE8E1"/>
<rect x="602.273" y="652.273" width="95.455" height="45.455" fill="#ECE8E1"/>
<rect x="702.273" y="602.273" width="95.455" height="45.455" fill="#ECE8E1"/>
<rect x="702.273" y="652.273" width="95.455" height="45.455" fill="#ECE8E1"/>
<rect x="802.273" y="602.273" width="95.455" height="45.455" fill="#0B0B0A"/>
<rect x="802.273" y="652.273" width="95.455" height="45.455" fill="#0B0B0A"/>
<rect x="102.273" y="702.273" width="95.455" height="45.455" fill="#0B0B0A"/>
<rect x="102.273" y="752.273" width="95.455" height="45.455" fill="#0B0B0A"/>
<rect x="202.273" y="702.273" width="95.455" height="45.455" fill="#0B0B0A"/>
<rect x="202.273" y="752.273" width="95.455" height="45.455" fill="#0B0B0A"/>
<rect x="302.273" y="702.273" width="95.455" height="45.455" fill="#ECE8E1"/>
<rect x="302.273" y="752.273" width="95.455" height="45.455" fill="#ECE8E1"/>
<rect x="402.273" y="702.273" width="95.455" height="45.455" fill="#0B0B0A"/>
<rect x="402.273" y="752.273" width="95.455" height="45.455" fill="#0B0B0A"/>
<rect x="502.273" y="702.273" width="95.455" height="45.455" fill="#ECE8E1"/>
<rect x="502.273" y="752.273" width="95.455" height="45.455" fill="#ECE8E1"/>
<rect x="602.273" y="702.273" width="95.455" height="45.455" fill="#0B0B0A"/>
<rect x="602.273" y="752.273" width="95.455" height="45.455" fill="#0B0B0A"/>
<rect x="702.273" y="702.273" width="95.455" height="45.455" fill="#0B0B0A"/>
<rect x="702.273" y="752.273" width="95.455" height="45.455" fill="#0B0B0A"/>
<rect x="802.273" y="702.273" width="95.455" height="45.455" fill="#0B0B0A"/>
<rect x="802.273" y="752.273" width="95.455" height="45.455" fill="#0B0B0A"/>
<rect x="102.273" y="802.273" width="95.455" height="45.455" fill="#0B0B0A"/>
<rect x="102.273" y="852.273" width="95.455" height="45.455" fill="#0B0B0A"/>
<rect x="202.273" y="802.273" width="95.455" height="45.455" fill="#0B0B0A"/>
<rect x="202.273" y="852.273" width="95.455" height="45.455" fill="#0B0B0A"/>
<rect x="302.273" y="802.273" width="95.455" height="45.455" fill="#0B0B0A"/>
<rect x="302.273" y="852.273" width="95.455" height="45.455" fill="#0B0B0A"/>
<rect x="402.273" y="802.273" width="95.455" height="45.455" fill="#0B0B0A"/>
<rect x="402.273" y="852.273" width="95.455" height="45.455" fill="#0B0B0A"/>
<rect x="502.273" y="802.273" width="95.455" height="45.455" fill="#0B0B0A"/>
<rect x="502.273" y="852.273" width="95.455" height="45.455" fill="#0B0B0A"/>
<rect x="602.273" y="802.273" width="95.455" height="45.455" fill="#0B0B0A"/>
<rect x="602.273" y="852.273" width="95.455" height="45.455" fill="#0B0B0A"/>
<rect x="702.273" y="802.273" width="95.455" height="45.455" fill="#0B0B0A"/>
<rect x="702.273" y="852.273" width="95.455" height="45.455" fill="#0B0B0A"/>
<rect x="802.273" y="802.273" width="95.455" height="45.455" fill="#0B0B0A"/>
<rect x="802.273" y="852.273" width="95.455" height="45.455" fill="#0B0B0A"/>
</svg>
